# File created by Blade
# Date/Time:  Wed Apr 08 17:24:25 2015
#---------------------------------------------------------
:version 1.10
:name HOM
:units
  mass 1.0
  length 1.000000
  angle deg
:documentation
     Acclaim Skeleton File
:root
   axis xyz
   order TX TY TZ RX RY RZ
   position 0.000000 0.000000 0.000000
   orientation 0 0 0
:bonedata
   begin
      id 1
      name Spine_dum
      direction 0.000000 1.000000 0.000000
      length 5.893853
      axis 0.0 0.0 0.0 xyz
   end
   begin
      id 2
      name LeftUpLeg_dum
      direction 1.000000 0.000000 0.000000
      length 3.697939
      axis 0.0 0.0 0.0 xyz
   end
   begin
      id 3
      name RightUpLeg_dum
      direction -1.000000 0.000000 0.000000
      length 3.697939
      axis 0.0 0.0 0.0 xyz
   end
   begin
      id 4
      name Spine
      direction 0.000000 1.000000 0.000000
      length 0.000000
      axis 0.0 0.0 0.0 xyz
      dof rx ry rz
   end
   begin
      id 5
      name Spine_dum1
      direction 0.000000 1.000000 0.000000
      length 16.447146
      axis 0.0 0.0 0.0 xyz
   end
   begin
      id 6
      name Spine_dum2
      direction 0.000000 1.000000 0.000000
      length 10.900383
      axis 0.0 0.0 0.0 xyz
   end
   begin
      id 7
      name Spine_dum3
      direction 0.000000 1.000000 0.000000
      length 10.900383
      axis 0.0 0.0 0.0 xyz
   end
   begin
      id 8
      name Head
      direction 0.000000 1.000000 0.000000
      length 4.527550
      axis 0.0 0.0 0.0 xyz
      dof rx ry rz
   end
   begin
      id 9
      name LeftShoulder
      direction 1.000000 0.000000 0.000000
      length 8.219464
      axis 0.0 0.0 -90.0 xyz
      dof rx ry rz
   end
   begin
      id 10
      name LeftArm
      direction 1.000000 0.000000 0.000000
      length 11.094937
      axis 0.0 0.0 -90.0 xyz
      dof rx ry rz
   end
   begin
      id 11
      name LeftForeArm
      direction 1.000000 0.000000 0.000000
      length 9.103875
      axis 0.0 0.0 -90.0 xyz
      dof ry rz rx
   end
   begin
      id 12
      name LeftHand
      direction 0.000000 0.000000 0.000000
      length 0.000000
      axis 0.0 0.0 -90.0 xyz
      dof rx ry rz
   end
   begin
      id 13
      name LeftHand_dum1
      direction 0.000000 0.000000 0.000000
      length 0.000000
      axis 0.0 0.0 -90.0 xyz
   end
   begin
      id 14
      name LeftHand_dum2
      direction 1.000000 0.000000 0.000000
      length 3.937000
      axis 0.0 0.0 -90.0 xyz
   end
   begin
      id 15
      name LeftHandThumb1
      direction 0.000000 0.000000 1.000000
      length 3.937000
      axis 0.0 0.0 -90.0 xyz
      dof rx rz ry
   end
   begin
      id 16
      name RightShoulder
      direction -1.000000 0.000000 0.000000
      length 8.219464
      axis 0.0 0.0 90.0 xyz
      dof rx ry rz
   end
   begin
      id 17
      name RightArm
      direction -1.000000 0.000000 0.000000
      length 11.094937
      axis 0.0 0.0 90.0 xyz
      dof rx ry rz
   end
   begin
      id 18
      name RightForeArm
      direction -1.000000 0.000000 0.000000
      length 9.103875
      axis 0.0 0.0 90.0 xyz
      dof ry rz rx
   end
   begin
      id 19
      name RightHand
      direction 0.000000 0.000000 0.000000
      length 0.000000
      axis 0.0 0.0 90.0 xyz
      dof rx ry rz
   end
   begin
      id 20
      name RightHand_dum1
      direction 0.000000 0.000000 0.000000
      length 0.000000
      axis 0.0 0.0 90.0 xyz
   end
   begin
      id 21
      name RightHand_dum2
      direction -1.000000 0.000000 0.000000
      length 3.937000
      axis 0.0 0.0 90.0 xyz
   end
   begin
      id 22
      name RightHandThumb1
      direction 0.000000 0.000000 1.000000
      length 3.937000
      axis 0.0 0.0 90.0 xyz
      dof rx rz ry
   end
   begin
      id 23
      name LeftUpLeg
      direction 0.000000 -1.000000 0.000000
      length 16.181467
      axis 0.0 0.0 0.0 xyz
      dof rx ry rz
   end
   begin
      id 24
      name LeftLeg
      direction 0.000000 -1.000000 0.000000
      length 16.501392
      axis 0.0 0.0 0.0 xyz
      dof rx ry rz
   end
   begin
      id 25
      name LeftFoot
      direction 0.000000 -0.258819 0.965926
      length 6.408245
      axis 15.0 0.0 0.0 xyz
      dof rx ry rz
   end
   begin
      id 26
      name LeftToeBase
      direction 0.000000 0.000000 1.000000
      length 2.952750
      axis 0.0 0.0 0.0 xyz
      dof rx ry rz
   end
   begin
      id 27
      name RightUpLeg
      direction 0.000000 -1.000000 0.000000
      length 16.181467
      axis 0.0 0.0 0.0 xyz
      dof rx ry rz
   end
   begin
      id 28
      name RightLeg
      direction 0.000000 -1.000000 0.000000
      length 16.501392
      axis 0.0 0.0 0.0 xyz
      dof rx ry rz
   end
   begin
      id 29
      name RightFoot
      direction 0.000000 -0.258819 0.965926
      length 6.408245
      axis 15.0 0.0 0.0 xyz
      dof rx ry rz
   end
   begin
      id 30
      name RightToeBase
      direction 0.000000 0.000000 1.000000
      length 2.952750
      axis 0.0 0.0 0.0 xyz
      dof rx ry rz
   end
:hierarchy
   begin
      root Spine_dum LeftUpLeg_dum RightUpLeg_dum
      Spine_dum Spine
      LeftUpLeg_dum LeftUpLeg
      RightUpLeg_dum RightUpLeg
      Spine Spine_dum1 Spine_dum2 Spine_dum3
      Spine_dum1 Head
      Spine_dum2 LeftShoulder
      Spine_dum3 RightShoulder
      LeftShoulder LeftArm
      LeftArm LeftForeArm
      LeftForeArm LeftHand
      LeftHand LeftHand_dum1 LeftHand_dum2
      LeftHand_dum1 LeftHandThumb1
      RightShoulder RightArm
      RightArm RightForeArm
      RightForeArm RightHand
      RightHand RightHand_dum1 RightHand_dum2
      RightHand_dum1 RightHandThumb1
      LeftUpLeg LeftLeg
      LeftLeg LeftFoot
      LeftFoot LeftToeBase
      RightUpLeg RightLeg
      RightLeg RightFoot
      RightFoot RightToeBase
   end

# File created by Blade
# Date/Time:  Wed Apr 08 17:24:36 2015
# Frame Rate: 120.000 fps
#------------------------------------------------------
:FULLY-SPECIFIED
:DEGREES
1
root 8.589744 36.317647 -0.035372 -124.878748 -88.436995 152.167139
Spine -27.545059 1.638913 -3.650353
Head 11.406982 7.606475 5.723224
LeftShoulder -4.008616 11.922114 29.650817
LeftArm 15.563279 -39.116827 -41.844288
LeftForeArm 12.401248 0.000000 0.891789
LeftHand -12.081610 -0.000000 -12.643492
LeftHandThumb1 -26.253704 0.000000 33.147579
RightShoulder -22.246465 -40.139347 -12.987329
RightArm 58.552290 48.919159 61.540129
RightForeArm 8.106382 -0.000000 -2.838933
RightHand -2.840513 -0.000000 7.458710
RightHandThumb1 -24.326973 -0.000000 -32.862282
LeftUpLeg -29.105430 12.935936 -0.292629
LeftLeg 12.618592 -0.000000 -0.000000
LeftFoot -10.116972 9.301718 -12.731599
LeftToeBase 7.320228 -0.000000 -0.000000
RightUpLeg -29.661447 -5.271975 -5.050825
RightLeg 11.649653 -0.000000 -0.000000
RightFoot -11.605754 -8.341413 19.169787
RightToeBase 9.681461 -0.000000 -0.000000
2
root 8.591594 36.318499 -0.033884 -124.757717 -88.438221 152.045971
Spine -27.544236 1.636823 -3.644335
Head 11.432874 7.572228 5.667882
LeftShoulder -4.003159 11.903349 29.649669
LeftArm 15.554373 -39.093713 -41.836339
LeftForeArm 12.359647 -0.000000 0.869674
LeftHand -12.072346 -0.000000 -12.641545
LeftHandThumb1 -26.253704 0.000000 33.147579
RightShoulder -22.253901 -40.136964 -12.986641
RightArm 58.584951 48.926048 61.585214
RightForeArm 8.102646 -0.000000 -2.816516
RightHand -2.848901 -0.000000 7.495475
RightHandThumb1 -24.326973 -0.000000 -32.862282
LeftUpLeg -29.109474 12.939319 -0.300523
LeftLeg 12.617983 -0.000000 -0.000000
LeftFoot -10.111033 9.293937 -12.737663
LeftToeBase 7.356818 -0.000000 -0.000000
RightUpLeg -29.670123 -5.277013 -5.055700
RightLeg 11.659805 -0.000000 -0.000000
RightFoot -11.597516 -8.343029 19.162825
RightToeBase 9.668107 -0.000000 -0.000000
3
root 8.593447 36.319130 -0.032013 -124.626500 -88.438768 151.914505
Spine -27.547005 1.633458 -3.635934
Head 11.447724 7.541907 5.637385
LeftShoulder -4.003309 11.890714 29.642703
LeftArm 15.557439 -39.094072 -41.837594
LeftForeArm 12.348672 -0.000000 0.856710
LeftHand -12.072647 -0.000000 -12.633358
LeftHandThumb1 -26.253704 0.000000 33.147579
RightShoulder -22.261495 -40.120095 -12.986122
RightArm 58.611952 48.937431 61.615772
RightForeArm 8.078513 0.000000 -2.789397
RightHand -2.848760 -0.000000 7.563965
RightHandThumb1 -24.326973 -0.000000 -32.862282
LeftUpLeg -29.112990 12.938035 -0.305634
LeftLeg 12.618946 -0.000000 -0.000000
LeftFoot -10.104295 9.286873 -12.739988
LeftToeBase 7.349644 -0.000000 -0.000000
RightUpLeg -29.677211 -5.294299 -5.052195
RightLeg 11.667280 -0.000000 -0.000000
RightFoot -11.587472 -8.336194 19.159898
RightToeBase 9.703956 -0.000000 -0.000000
4
root 8.595249 36.319809 -0.030587 -124.013607 -88.456150 151.311350
Spine -27.558977 1.603131 -3.619058
Head 11.440456 7.524360 5.630343
LeftShoulder -4.009811 11.878810 29.631433
LeftArm 15.557204 -39.101998 -41.829450
LeftForeArm 12.340213 -0.000000 0.834133
LeftHand -12.090941 -0.000000 -12.630642
LeftHandThumb1 -26.253704 0.000000 33.147579
RightShoulder -22.265628 -40.111145 -12.983523
RightArm 58.632814 48.943277 61.626687
RightForeArm 8.068954 -0.000000 -2.765936
RightHand -2.872733 -0.000000 7.615661
RightHandThumb1 -24.326973 -0.000000 -32.862282
LeftUpLeg -29.127506 12.915523 -0.306960
LeftLeg 12.613698 -0.000000 -0.000000
LeftFoot -10.093487 9.288791 -12.744344
LeftToeBase 7.357473 -0.000000 -0.000000
RightUpLeg -29.685358 -5.326427 -5.045859
RightLeg 11.664837 -0.000000 -0.000000
RightFoot -11.579608 -8.330727 19.157160
RightToeBase 9.712777 -0.000000 -0.000000
5
root 8.596723 36.320872 -0.029349 -123.976096 -88.456275 151.275421
Spine -27.562397 1.601168 -3.614630
Head 11.449167 7.491084 5.620816
LeftShoulder -4.012835 11.865384 29.631817
LeftArm 15.572859 -39.139485 -41.848655
LeftForeArm 12.355159 -0.000000 0.810223
LeftHand -12.090293 -0.000000 -12.621830
LeftHandThumb1 -26.253704 0.000000 33.147579
RightShoulder -22.267284 -40.075167 -12.991437
RightArm 58.592812 48.920261 61.580920
RightForeArm 8.079272 0.000000 -2.757617
RightHand -2.854450 -0.000000 7.640338
RightHandThumb1 -24.326973 -0.000000 -32.862282
LeftUpLeg -29.130109 12.934337 -0.319680
LeftLeg 12.604762 -0.000000 -0.000000
LeftFoot -10.075890 9.269714 -12.726630
LeftToeBase 7.343825 -0.000000 -0.000000
RightUpLeg -29.681081 -5.323627 -5.049279
RightLeg 11.648114 -0.000000 -0.000000
RightFoot -11.564792 -8.340873 19.145124
RightToeBase 9.679592 -0.000000 -0.000000
6
root 8.598209 36.321739 -0.027511 -124.006695 -88.453250 151.307909
Spine -27.567952 1.596961 -3.607779
Head 11.463901 7.468126 5.603935
LeftShoulder -4.017376 11.850820 29.633616
LeftArm 15.576928 -39.171071 -41.864960
LeftForeArm 12.351867 -0.000000 0.786511
LeftHand -12.081317 -0.000000 -12.605399
LeftHandThumb1 -26.253704 0.000000 33.147579
RightShoulder -22.264818 -40.057468 -12.994422
RightArm 58.581914 48.914194 61.557633
RightForeArm 8.068960 -0.000000 -2.751097
RightHand -2.839842 -0.000000 7.666191
RightHandThumb1 -24.326973 -0.000000 -32.862282
LeftUpLeg -29.124174 12.931994 -0.320874
LeftLeg 12.588456 -0.000000 -0.000000
LeftFoot -10.069593 9.268031 -12.727448
LeftToeBase 7.390989 -0.000000 -0.000000
RightUpLeg -29.676810 -5.321561 -5.052143
RightLeg 11.629121 -0.000000 -0.000000
RightFoot -11.552994 -8.350333 19.141733
RightToeBase 9.698581 -0.000000 -0.000000
7
root 8.599144 36.322504 -0.026120 -123.896837 -88.454738 151.199836
Spine -27.577232 1.592383 -3.604792
Head 11.494287 7.438247 5.598172
LeftShoulder -4.015088 11.837611 29.637640
LeftArm 15.581494 -39.194292 -41.875404
LeftForeArm 12.330507 0.000000 0.768697
LeftHand -12.100092 0.000000 -12.595890
LeftHandThumb1 -26.253704 0.000000 33.147579
RightShoulder -22.265234 -40.048047 -13.000383
RightArm 58.557611 48.892410 61.516883
RightForeArm 8.094111 0.000000 -2.767866
RightHand -2.824205 -0.000000 7.646828
RightHandThumb1 -24.326973 -0.000000 -32.862282
LeftUpLeg -29.120529 12.937490 -0.330057
LeftLeg 12.569469 -0.000000 -0.000000
LeftFoot -10.056489 9.266695 -12.719306
LeftToeBase 7.360992 -0.000000 -0.000000
RightUpLeg -29.670292 -5.328260 -5.052897
RightLeg 11.609419 -0.000000 -0.000000
RightFoot -11.541581 -8.358001 19.143325
RightToeBase 9.716601 -0.000000 -0.000000
